<svg xmlns="http://www.w3.org/2000/svg" width="4000" height="1615"><path fill="#fff" d="M2311 428h539l10 10c4.02 3.524 4.02 3.524 5.971 5.198 4.08 3.623 7.871 7.544 11.709 11.42l2.709 2.72q4.245 4.265 8.486 8.537 5.617 5.656 11.242 11.305l2.61 2.635 2.41 2.419 2.12 2.136C2909 486 2909 486 2911 487v2l1.625.625c3.377 1.955 5.68 4.557 8.375 7.375v2h2l1.145 1.363c3.729 4.359 7.621 8.512 11.668 12.575l1.454 1.468c3.485 3.47 3.485 3.47 5.733 4.594v2l1.72.73c2.736 1.524 4.566 3.348 6.757 5.586l2.53 2.565 2.618 2.682q2.579 2.63 5.164 5.253l2.303 2.358C2966 542 2966 542 2968 543v2l3 1v2h2v2l3 1v2h2l1.426 1.68 1.887 2.195 1.863 2.18C2985 561 2985 561 2988 563v2l3 1c1.3 2.6 1.125 4.478 1.124 7.39l.007 3.498-.008 3.883q0 2.055.004 4.11.004 5.692-.005 11.385c-.003 4.117 0 8.234 0 12.351q.004 10.838-.003 21.676-.008 16.117-.005 32.233.001 27.106-.008 54.213-.01 26.85-.011 53.7v3.37l-.001 16.936q-.004 60.03-.019 120.057-.014 58.329-.02 116.656v3.63l-.013 113.031q-.016 112.94-.042 225.881l-2.25 2.244q-10.51 10.48-21.012 20.966-5.4 5.391-10.801 10.778-5.216 5.2-10.427 10.407l-3.975 3.965q-2.79 2.779-5.573 5.565l-1.657 1.645c-2.987 2.996-5.729 6.074-8.305 9.43h-2v2l-3 3h-2v2l-1.253 1.04c-6.67 5.674-12.807 11.869-18.984 18.066q-2.832 2.838-5.673 5.667l-3.66 3.665-1.686 1.68a162 162 0 0 0-9.447 10.382c-1.642 1.899-3.433 3.52-5.36 5.125-3.153 2.644-6.047 5.444-8.937 8.375a6728 6728 0 0 1-8.187 8.25l-2.194 2.219-2.1 2.11-1.903 1.918C2850 1512 2850 1512 2848 1513c-2.88.097-5.736.132-8.617.123l-2.75.004q-4.611.002-9.222-.007-3.319 0-6.638.003-9.16.002-18.32-.007-8.852-.005-17.703-.002-18.113.001-36.226-.008-17.942-.01-35.883-.011h-2.252l-11.318-.001q-40.113-.004-80.226-.019-38.976-.014-77.951-.02h-2.426l-75.533-.013q-75.467-.016-150.935-.042l-1-1zm-666 0h393l8 8a1420 1420 0 0 0 5.874 5.101c4.257 3.802 8.228 7.9 12.243 11.954l2.844 2.855q4.46 4.479 8.914 8.965a8792 8792 0 0 0 10.403 10.459q2.075 2.086 4.145 4.176l2.53 2.54 2.228 2.244C2097 486 2097 486 2099 487v2l1.798.81c2.231 1.206 3.668 2.426 5.436 4.23l1.739 1.757 1.777 1.828 1.824 1.852q2.219 2.255 4.426 4.523v2l1.744.758c2.573 1.417 4.281 3.034 6.347 5.122l2.408 2.418 2.58 2.62 2.682 2.699q3.532 3.555 7.053 7.118a5804 5804 0 0 0 9.882 9.97q2.629 2.647 5.25 5.302c3.54 3.57 7.08 7.075 10.905 10.342 5.627 4.952 10.848 10.35 16.149 15.651l1 800c-4.128 4.717-8.083 9.207-12.496 13.594l-1.45 1.445q-2.243 2.233-4.492 4.461l-3.083 3.07q-3.736 3.72-7.479 7.43h-2l-2 4-3 1v2l-3 3h-2v2l-3 3h-2v2h-2l-.632 1.62c-1.907 3.319-4.541 5.799-7.25 8.458l-1.741 1.732q-2.747 2.725-5.502 5.44l-3.73 3.703A4079 4079 0 0 1 2106 1445h-2v2l-1.363 1.145c-4.359 3.729-8.512 7.621-12.575 11.668l-1.468 1.454c-3.47 3.485-3.47 3.485-4.594 5.733h-2l-.769 1.757c-1.369 2.494-2.901 4.14-4.926 6.134l-2.168 2.148-2.262 2.211-2.285 2.258A1634 1634 0 0 1 2064 1487h-2v2h-2l-1 3h-2v2l-1.328 1.11c-5.139 4.386-9.915 9.06-14.634 13.889-3.834 3.899-3.834 3.899-6.038 5.001-2.11.095-4.224.124-6.337.123l-2.002.004q-3.354.002-6.707-.007l-4.832.003q-6.663.002-13.326-.007-7.176-.005-14.352-.002-12.441 0-24.882-.008-17.988-.011-35.976-.012-29.18-.004-58.363-.019-28.353-.014-56.707-.02h-3.528l-17.524-.005c-145.43-.03-145.43-.03-147.829-1.41-2.872-1.787-4.65-3.686-6.822-6.265-3.622-4.28-3.622-4.28-5.813-5.375v-2l-3-1v-2h-2v-2h-2l-3-3v-2h-2l-3-3v-2h-2l-3-3v-2h-2l-3-3v-2l-4-2-1-3h-2v-2l-3-1v-2h-2v-2l-4-2-1-3-3-1v-2l-1.812-.812c-2.16-1.173-3.546-2.382-5.188-4.188v-2l-4-2-1-3h-2l-1.145-1.363c-3.729-4.359-7.621-8.512-11.668-12.574l-1.454-1.469c-3.485-3.47-3.485-3.47-5.733-4.594v-2l-3-1v-2l-1.812-.812c-2.16-1.173-3.546-2.382-5.188-4.188v-2l-4-2-38-38V570c7.889-9.016 7.889-9.016 10.902-12.035l2.01-2.014 2.025-2.014 2.014-2.025c3.199-3.192 6.433-6.284 9.865-9.225 5.33-4.598 10.232-9.628 15.184-14.625l2.926-2.939q3.54-3.558 7.074-7.123h2v-2h2l.718-1.704c1.576-2.822 3.498-4.754 5.79-7.034l2.742-2.737 1.434-1.414a991 991 0 0 0 4.246-4.226c3.867-3.843 7.739-7.619 11.871-11.177 4.438-3.857 8.564-7.98 12.687-12.169l4.83-4.867q3.746-3.781 7.484-7.57c8.758-8.868 17.407-17.376 27.198-25.102zm1675 0h315l2 2c8.24 31.332 16.38 62.76 23.188 94.438 2.028 9.435 4.416 18.748 6.937 28.062 7.784 28.774 14.388 57.882 20.73 87.004 2.111 9.576 4.505 19.077 6.907 28.582a2512 2512 0 0 1 8.75 35.818c5.524 23.29 11.297 46.514 17.129 69.729l.827 3.293q1.727 6.878 3.46 13.754 1.407 5.588 2.81 11.175l.858 3.398c1.912 7.618 3.668 15.261 5.341 22.934l.819 3.736.65 2.975c1.893 8.539 3.97 17.03 6.048 25.526a2281 2281 0 0 1 6.983 29.389c2.926 12.652 6.05 25.248 9.218 37.84a3121 3121 0 0 1 11.642 47.859 1115 1115 0 0 0 7.015 28.176c3.766 14.38 7.161 28.839 10.525 43.316 1.284 5.52 2.577 11.04 3.87 16.559l1.42 6.063.718 3.06.718 3.064.714 3.052a7960 7960 0 0 1 9.442 40.691c1.24 5.37 2.597 10.673 4.154 15.961 1.956 6.808 3.648 13.653 5.24 20.554q.718 3.117 1.446 6.231 1.036 4.438 2.066 8.878a9504 9504 0 0 0 5.395 23.074l.534 2.275c2.646 11.254 5.38 22.479 8.321 33.659 3.27 12.441 6.343 24.92 9.313 37.438l.652 2.75a3413 3413 0 0 1 7.097 30.562c3.1 13.622 6.546 27.158 9.95 40.706 2.727 10.858 5.43 21.722 8.05 32.607l.782 3.243q1.858 7.752 3.67 15.514c2.403 10.27 4.927 20.51 7.486 30.743l.666 2.67c2.406 9.647 4.857 19.268 7.584 28.83 3.903 13.766 6.657 27.838 9.609 41.832A1095 1095 0 0 0 3899 1512l-1 1h-247l-2-2-.44-2.004a51111 51111 0 0 0-6.01-27.356c-3.579-16.27-7.173-32.534-10.925-48.765a1570 1570 0 0 1-7.062-32.125c-3.53-16.863-7.402-33.64-11.319-50.417q-2.025-8.683-4.04-17.368A57438 57438 0 0 0 3602 1302c-5.715-.98-11.237-1.139-17.029-1.12l-3.013-.003q-4.983 0-9.968.01l-7.155-.001q-8.7 0-17.397.01-10.125.011-20.25.01-18.055.004-36.11.019-17.535.014-35.069.02h-2.185l-10.852.005q-44.985.016-89.972.05c-1.194 4.15-2.342 8.281-3.297 12.492l-.719 3.145-.734 3.238c-1.46 6.428-2.93 12.85-4.51 19.25-4.511 18.345-8.376 36.812-12.22 55.307q-2.314 11.142-4.645 22.283l-.506 2.421a1403 1403 0 0 1-7.271 32.805 978 978 0 0 0-4.801 21.704l-.645 3.067q-1.284 6.129-2.558 12.258-.957 4.589-1.922 9.175l-.575 2.79-.547 2.596-.47 2.258c-.657 2.504-1.603 4.816-2.58 7.211a240411 240411 0 0 1-104.993.055h-2.227q-17.875.008-35.75.022-18.33.014-36.66.017-11.317.002-22.636.014-8.666.008-17.333.005-3.564 0-7.128.006-4.847.006-9.693.001l-2.883.01-2.609-.007-2.262.001C3059 1513 3059 1513 3057 1512c1.654-8.77 3.696-17.443 5.75-26.125l.534-2.263A2422 2422 0 0 1 3073 1444c2.87-11.346 5.632-22.716 8.363-34.096 1.49-6.201 3.006-12.395 4.563-18.58 2.12-8.436 4.13-16.898 6.134-25.362a7655 7655 0 0 1 10.44-43.587l.549-2.26q3.184-13.11 6.49-26.19l3.235-12.808c2.693-10.691 5.206-21.39 7.476-32.18 3.38-16.006 7.478-31.821 11.55-47.664a2643 2643 0 0 0 14.731-60.254c2.609-11.234 5.29-22.444 8.103-33.628q.864-3.437 1.723-6.875a6119 6119 0 0 1 5.43-21.557c3.67-14.443 7.29-28.87 10.338-43.459 3.493-16.716 7.735-33.224 12.008-49.754 10.09-39.043 10.09-39.043 13.507-55.747 2.446-11.775 5.31-23.445 8.173-35.124.26-1.067.522-2.133.791-3.232 3.425-13.946 7.01-27.84 10.766-41.7 2.853-10.565 5.23-21.174 7.416-31.895 2.505-12.237 5.466-24.33 8.589-36.423l.713-2.763a7898 7898 0 0 1 6.189-23.737q1.496-5.72 2.982-11.44.78-2.985 1.573-5.966c2.226-8.546 4.124-17.134 5.938-25.778 3-14.247 6.48-28.356 10.064-42.465 1.782-7.015 3.543-14.035 5.307-21.054l.52-2.072c2.737-10.89 5.415-21.79 7.964-32.725l.466-2q1.466-6.31 2.909-12.625l3-13.062.713-3.105a2468 2468 0 0 1 5.78-24.42l1.44-5.982c1.434-5.91 2.894-11.81 4.457-17.687 3.78-14.214 7.077-28.491 10.173-42.869 2.621-12.126 5.244-24.248 8.105-36.32l.59-2.497c1.94-8.099 4.132-16.149 6.742-24.058zm-2105 0h250c-.767 4.604-1.574 7.892-3.25 12.125l-1.203 3.07a372 372 0 0 1-2.592 6.272c-3.86 9.127-7.349 18.382-10.83 27.658q-1.776 4.723-3.555 9.445l-.9 2.391a1437 1437 0 0 1-5.975 15.535 2562 2562 0 0 0-8.586 22.344l-1.316 3.461q-2.692 7.075-5.376 14.152c-5.413 14.278-10.946 28.488-16.778 42.6-2.42 5.87-4.722 11.747-6.764 17.76-2.219 6.503-4.738 12.842-7.375 19.187-2.627 6.325-5.162 12.643-7.375 19.125-2.643 7.738-5.619 15.334-8.625 22.938-4.717 11.932-9.297 23.899-13.695 35.953-4.747 12.963-9.711 25.799-14.98 38.56-2.436 5.928-4.768 11.854-6.825 17.924-2.456 7.25-5.33 14.301-8.25 21.375-6.577 15.951-12.508 32.124-18.365 48.35l-.947 2.587-.73 1.99c-2.12 5.737-4.408 11.392-6.751 17.042-5.435 13.204-10.578 26.518-15.707 39.843l-1.46 3.79a3941 3941 0 0 0-20.51 54.356 3867 3867 0 0 1-10.362 27.727 843 843 0 0 1-12.647 31.584c-3.161 7.479-5.91 15.046-8.534 22.727-3.466 10.01-7.167 19.935-11.303 29.688-5.182 12.438-10.013 25.004-14.371 37.754-5.523 16.136-11.31 32.265-18.65 47.675-4.948 10.547-7.15 19.226-7.052 30.9q-.01 2.19-.026 4.378a1314 1314 0 0 0 0 11.917c.01 4.298-.01 8.596-.026 12.894q-.035 11.15-.023 22.301c.01 10.748-.008 21.496-.032 32.244-.04 17.44-.056 34.881-.058 52.322q-.004 25.404-.043 50.807l-.005 3.166-.026 15.73A95044 95044 0 0 0 1183 1512l-1 1H937l-1-1 .015-2.193c.292-43.04.514-86.08.649-129.121l.06-18.682c.057-16.643.16-33.284.279-49.926q.182-25.675.22-51.35c.018-10.535.073-21.069.18-31.604.07-7.255.09-14.51.073-21.766-.009-4.167.003-8.331.074-12.498.363-22.427-3.536-39.817-12.906-60.207-2.65-5.805-4.906-11.766-7.207-17.716l-2.667-6.785c-3.64-9.344-7.142-18.74-10.624-28.144-3.746-10.097-7.819-20.023-12.146-29.883-3.595-8.373-6.786-16.866-9.29-25.63-1.735-5.799-3.954-11.351-6.245-16.948l-2.692-6.662-1.392-3.445a1691 1691 0 0 1-6.565-16.674l-1.298-3.335q-1.98-5.09-3.956-10.181l-1.384-3.562c-6.082-15.648-12.117-31.312-18.033-47.024a1030 1030 0 0 0-5.832-15.039c-2.62-6.648-4.99-13.368-7.313-20.125-3.884-11.296-8.013-22.477-12.676-33.477-3.461-8.182-6.504-16.408-9.324-24.836-5.743-17.092-12.927-33.612-20-50.187.518-3.096.908-4.866 2.723-7.488l2.34-2.824c5.065-6.303 9.545-12.944 14-19.688l2.103-3.184 4.034-6.107c2.893-4.353 5.878-8.638 8.87-12.924a509 509 0 0 0 5.805-8.597c7.801-11.748 15.893-23.293 24-34.83a616 616 0 0 0 10.188-14.983c4.06-6.163 8.344-12.142 12.688-18.108a1066 1066 0 0 0 27.28-39.341c4.029-5.987 8.237-11.85 12.413-17.734a5485 5485 0 0 0 8.899-12.583 4978 4978 0 0 0 13.85-19.747c3.243-4.64 6.508-9.262 9.807-13.862 2.014 3.021 2.807 5.302 3.813 8.766l1.054 3.588.558 1.92c.99 3.403 1.998 6.801 3.009 10.199l.635 2.136c2.212 7.398 4.595 14.739 6.994 22.078 3.121 9.565 6.12 19.153 8.937 28.813 2.824 9.678 5.82 19.289 8.938 28.875 5.643 17.363 11.121 34.774 16.355 52.266a1958 1958 0 0 0 15.283 48.628c4.809 14.664 9.47 29.369 14.049 44.106 4.515 14.53 9.092 29.035 13.813 43.5 7.135 21.892 13.986 43.775 19.562 66.125l2 1c4.63-12.025 8.702-24.092 12.188-36.5 3.373-12.003 7.212-23.789 11.312-35.562 4.31-12.388 8.359-24.785 12.042-37.376 3.16-10.734 6.6-21.367 10.083-32 3.829-11.689 7.601-23.383 11.13-35.167 1.828-6.088 3.794-12.117 5.839-18.135 2.417-7.17 4.623-14.402 6.843-21.635 2.527-8.22 5.103-16.403 8-24.5 6.412-17.948 12.162-36.144 17.5-54.437 4.45-15.24 9.383-30.313 14.316-45.401a13302 13302 0 0 0 7.703-23.648 1497 1497 0 0 0 9.357-29.764c2.41-7.951 5.022-15.766 7.967-23.534 2.645-7.014 5.041-14.104 7.408-21.216l1.116-3.35a788 788 0 0 0 6.259-19.782c4.128-13.184 4.128-13.184 5.937-14.993m-78-326c4 1.381 6.814 3.241 10.063 5.938 2.936 2.42 5.872 4.804 8.937 7.062-.612 3.076-1.592 5.171-3.379 7.738l-1.517 2.2-1.667 2.374-1.74 2.512c-1.893 2.73-3.795 5.453-5.697 8.176l-3.965 5.7q-3.04 4.372-6.086 8.742a2182 2182 0 0 0-12.574 18.245 1867 1867 0 0 1-15.134 21.816A1402 1402 0 0 0 1092.188 210c-3.401 4.999-6.832 9.942-10.5 14.75-5.825 7.634-11.212 15.576-16.676 23.469a1571 1571 0 0 1-10.512 14.969 608 608 0 0 0-11.39 16.675c-4.078 6.063-8.334 12-12.563 17.958-9.235 13.01-18.369 26.086-27.47 39.19a7852 7852 0 0 1-6.198 8.903c-6.246 8.963-12.475 17.935-18.629 26.961-5.987 8.778-12.101 17.46-18.25 26.125-6.298 8.883-12.563 17.785-18.715 26.77A1819 1819 0 0 1 930 442a1959 1959 0 0 0-12.5 18 2056 2056 0 0 1-12.625 18.188l-1.818 2.594c-4.58 6.54-4.58 6.54-6.378 9.097a536 536 0 0 0-12.866 19.183c-4.645 7.248-9.516 14.316-14.478 21.35a1186 1186 0 0 0-11.898 17.213c-4.764 7-9.653 13.895-14.63 20.744-5.18 7.13-10.263 14.326-15.332 21.535q-2.931 4.161-5.871 8.316c-13.425 18.994-26.828 38.008-39.667 57.405-4.947 7.467-10.12 14.767-15.306 22.071a2521 2521 0 0 0-22.448 32.226c-4.286 6.248-8.637 12.45-12.99 18.652a1514 1514 0 0 0-10.755 15.551c-4.374 6.4-8.897 12.682-13.46 18.95-3.95 5.448-7.768 10.976-11.54 16.55-4.061 5.996-8.238 11.864-12.625 17.625-5.153 6.769-9.889 13.745-14.557 20.853a939 939 0 0 1-27.131 38.811c-7.352 9.997-14.274 20.243-21.125 30.586-7.268 10.973-14.67 21.788-22.468 32.393-2.92 4.017-5.754 8.096-8.595 12.17a2376 2376 0 0 1-11.423 16.267c-5.087 7.168-10.075 14.399-15.014 21.67a1539 1539 0 0 1-17.962 25.827c-3.419 4.831-6.806 9.685-10.195 14.537-2.894 4.14-5.793 8.277-8.71 12.402a1230 1230 0 0 0-19.696 28.797l-1.164 1.753-1.16 1.745c-9.548 14.37-19.28 28.574-29.422 42.533-7.512 10.349-14.823 20.838-22.05 31.39-6.243 9.103-12.644 18.097-19.04 27.094-9.67 13.626-19.04 27.454-28.413 41.285-7.267 10.715-14.572 21.392-22.07 31.946a896 896 0 0 0-6.993 10.004 2913 2913 0 0 1-11.312 16.25l-1.798 2.565-7.368 10.516-7.243 10.34q-4.786 6.836-9.529 13.704a1829 1829 0 0 1-11.583 16.524 4332 4332 0 0 0-13.582 19.35 2412 2412 0 0 1-9.698 13.77c-7.029 9.908-13.866 19.944-20.692 29.993a4207 4207 0 0 1-8.195 11.987 7218 7218 0 0 0-15.25 22.376c-15.113 22.236-30.405 44.346-45.944 66.288q-2.194 3.105-4.38 6.215-3.725 5.295-7.468 10.575-1.657 2.34-3.31 4.683-2.628 3.718-5.273 7.426l-1.636 2.326-1.552 2.166-1.355 1.91c-1.629 1.926-3.394 3.283-5.457 4.723q-3.664-2.615-7.312-5.25l-2.092-1.488c-3.404-2.467-6.34-4.632-8.596-8.262l2.273-3.191c4.96-6.982 9.888-13.972 14.602-21.121 6.182-9.363 12.668-18.513 19.125-27.688 13.66-19.424 13.66-19.424 19.969-28.98 3.5-5.204 7.147-10.303 10.773-15.418a2863 2863 0 0 0 10.008-14.227l1.752-2.503a7921 7921 0 0 0 13.623-19.56 3226 3226 0 0 1 15.436-22.03c8.547-12.085 17.038-24.208 25.4-36.422 3.263-4.755 6.579-9.469 9.914-14.172 5.955-8.403 11.769-16.9 17.57-25.41 2.835-4.154 5.687-8.296 8.538-12.44q3.332-4.838 6.654-9.686a3036 3036 0 0 1 26.955-38.638l1.47-2.076 1.471-2.077c3.692-5.227 7.306-10.506 10.904-15.799a753 753 0 0 1 15.074-21.337c3.64-4.984 7.102-10.067 10.489-15.225-1.744-3.78-3.86-5.926-7-8.687l-2.687-2.387C395 1137 395 1137 393 1136v-2l-1.804-.82c-2.17-1.166-3.596-2.322-5.333-4.051l-1.735-1.723-1.815-1.843-1.89-1.91c-25.535-26.104-43.226-60.418-52.423-95.653-3.649-15.187-6.318-30.494-8.539-45.947-1.825-12.62-4.088-25.138-6.448-37.668-3.924-20.83-7.734-41.677-11.338-62.563q-.725-4.198-1.47-8.392c-6.737-38.003-7.528-75.58 5.795-112.43 8.623-23.482 20.844-45.72 38-64a532 532 0 0 0 4-4.437l1.688-1.872C351 689 351 689 352 686l-1.738-.445c-21.478-5.671-41.591-13.405-61.332-23.573a322 322 0 0 0-5.743-2.841c-16.53-8.036-32.41-17.122-47.354-27.834a391 391 0 0 0-5.438-3.795c-15.714-10.88-31.507-23.864-43.774-38.578-1.889-2.253-3.878-4.398-5.871-6.559-9.36-10.41-17.43-21.46-24.75-33.375l-2.09-3.383q-2.014-3.27-4.012-6.55a202 202 0 0 0-3.671-5.727c-5.353-8.028-9.335-16.538-13.227-25.34l-.906-2.039C117.99 473.905 108.187 438.786 104 404l-.32-2.663c-1.796-15.918-1.863-31.838-1.868-47.837l-.003-3.143q.002-4.507.023-9.013l.004-2.71c.043-5.927.477-11.746 1.164-17.634 5.047-1.518 9.759-.64 14.875.063l3.01.404C169.99 328.397 216.163 342.737 260 366l2.489 1.3c21.044 11.018 39.76 25.394 57.148 41.52a192 192 0 0 0 6.176 5.43C341.778 428.26 354.166 444.452 366 462q1.156 1.666 2.316 3.328C378.616 480.25 388.03 496.241 395 513l.851 1.994C411.452 551.674 428 596.664 428 637l3.488-.988c19.02-5.272 37.859-7.535 57.512-9.012-.914-7.99-1.938-15.906-3.437-23.812-1.403-7.546-2.335-15.125-3.188-22.75l-.373-3.295c-1.657-15.33-2.209-30.55-2.19-45.956l.002-2.712c.07-38.501 4.82-75.539 19.186-111.475l1.322-3.355C506.29 398.553 512.554 383.906 521 370l2.047-3.45A419 419 0 0 1 529 357l1.171-1.832c7.363-11.452 15.57-21.789 24.743-31.863 2.76-3.05 5.427-6.168 8.086-9.305h2l.728-1.716c1.534-2.754 3.38-4.616 5.624-6.83l2.578-2.56 2.695-2.644 2.719-2.691q3.321-3.286 6.656-6.559h2v-2q3.944-3.229 7.895-6.45a341 341 0 0 0 5.617-4.695c7.915-6.697 16.422-12.433 25.027-18.2a893 893 0 0 0 7.055-4.803c14.968-10.223 30.778-18.576 46.843-26.915l1.972-1.023q2.791-1.447 5.587-2.887l3.287-1.695C694 221 694 221 697 220c3 5.78 5.522 11.595 7.813 17.688l1.04 2.759c9.877 26.45 16.17 52.625 20.147 80.553l.51 3.437c2.426 16.884 2.774 33.66 2.803 50.688l.01 3.158c.025 13.372-.596 26.457-2.323 39.717l-.458 3.667c-1.948 14.984-4.416 29.785-8.542 44.333l-.648 2.291c-12.648 42.965-38.291 85.05-70.028 116.35a103 103 0 0 0-5.636 6.234c-4.563 5.322-9.829 9.909-15.018 14.604a386 386 0 0 0-4.686 4.35c-6.753 6.338-13.822 12.121-21.162 17.765-3.145 2.427-6.263 4.887-9.385 7.343l-1.731 1.36A1151 1151 0 0 0 580 644h-2l1 2 2.5 1.145c15.55 7.41 28.728 17.386 41.5 28.855l3.188 2.816c22.2 19.78 39.16 44.416 49.812 72.184.741 2.322 1.383 4.64 2 7h2l1.04-1.703c5.166-8.298 10.789-16.255 16.413-24.246 3.047-4.33 6.057-8.682 9.047-13.051 9.041-13.187 18.217-26.274 27.607-39.215 5.806-8.016 11.467-16.133 17.127-24.253 2.916-4.181 5.842-8.356 8.766-12.532l3.508-5.012q3.46-4.942 6.922-9.883c32.215-45.978 32.215-45.978 41.383-59.855 8.334-12.56 17.157-24.798 25.862-37.103a1359 1359 0 0 0 11.043-15.92c7.525-10.973 15.182-21.856 22.874-32.713a1489 1489 0 0 0 15.412-22.217A1550 1550 0 0 1 899 443c7.305-10.405 14.48-20.896 21.637-31.403 6.674-9.796 13.409-19.542 20.261-29.214 7.653-10.803 15.245-21.649 22.727-32.57 4.18-6.1 8.421-12.154 12.693-18.19 10.964-15.495 21.795-31.083 32.628-46.669q3.117-4.482 6.238-8.962c5.877-8.44 11.753-16.882 17.566-25.367 5.172-7.546 10.445-15.02 15.734-22.484 2.51-3.544 5.012-7.093 7.516-10.641q4.51-6.397 9.035-12.785a1741 1741 0 0 0 15.68-22.485c4.318-6.298 8.703-12.55 13.089-18.8a1723 1723 0 0 0 10.821-15.618 1413 1413 0 0 1 12.66-18.14 3255 3255 0 0 0 14.26-20.337l1.717-2.46 1.53-2.195C1136 103 1136 103 1137 102"/><path fill="#000" d="m2557 641 155 1c26 26 26 26 33 34l3 3v585l-13 13h-2v2h-2v2l-1.363 1.145c-6.256 5.353-11.752 10.97-17.637 16.855h-156l-1-1V643zm-777 1h121l10 10v2l3 1v2h2v2l3 1v2h2v2h2a6644 6644 0 0 1 4.883 5.566c2.723 3.13 5.417 6.284 8.117 9.434v585l-10 10h-2l-1 3h-2v2l-1.68 1.426-2.195 1.887-2.18 1.863C1913 1286 1913 1286 1911 1289h-2l-.625 1.625C1907 1293 1907 1293 1901 1299h-122l-36-36q-.045-54.633-.062-109.265l-.002-6.49c-.025-83.375.079-166.749.555-321.46l.027-8.195q.229-69.295.482-138.59c11.331-12.95 23.832-24.832 36-37m1696 45 2 1c6.147 28.17 11.83 56.405 16.977 84.775 3.085 16.999 6.315 33.9 10.222 50.73 4.836 21.1 9.247 42.269 13.087 63.57a3568 3568 0 0 0 4.651 24.925l.524 2.768c2.253 11.87 4.676 23.671 7.39 35.445 1.987 8.738 3.593 17.527 5.149 26.35 1.881 10.65 4.008 21.189 6.54 31.707 2.842 11.997 5.165 24.097 7.542 36.193 2.52 12.81 5.144 25.564 8.33 38.228l.69 2.813.604 2.37C3560 1090 3560 1090 3559 1094h-165c.7-7.01 1.626-13.018 3.438-19.687 7.483-28.877 13.087-58.256 18.48-87.581 3.101-16.833 6.465-33.602 9.957-50.357l.764-3.668 3.066-14.692a8474 8474 0 0 0 8.17-39.702l.704-3.45c2.596-12.732 5.135-25.47 7.546-38.238 3.187-16.832 7.06-33.51 10.87-50.21 3.393-14.888 6.503-29.751 9.04-44.81.902-5.323 1.923-10.62 2.965-15.918 1.841-9.404 3.307-18.854 4.693-28.335l.475-3.207.415-2.864C3475 689 3475 689 3476 687M636 374l1 3-.867 2.25c-5.867 15.258-11.532 30.553-16.82 46.023-2.543 7.431-5.177 14.83-7.813 22.227-3.378 9.485-6.72 18.98-10 28.5-3.762 10.92-7.612 21.806-11.487 32.686a1866 1866 0 0 0-7.018 20.036c-3.447 10.037-7.115 19.979-10.87 29.903-5.261 13.907-10.185 27.903-14.971 41.981a4223 4223 0 0 1-5.591 16.332c-.16.467-.16.467-.964 2.834-1.588 4.603-3.288 8.939-5.599 13.228l-3 1-2.387-.586c-7.83-1.872-15.64-3.305-23.613-4.414l-1-2 .899-1.873c5.386-11.232 10.769-22.463 16.006-33.765q2.081-4.489 4.165-8.975l1.693-3.645 2.608-5.619 4.183-9.007 3.454-7.448a1303 1303 0 0 1 7.61-16.113c4.447-9.244 8.851-18.478 12.89-27.908 2.312-5.35 4.888-10.543 7.521-15.741 4.508-8.909 8.635-17.992 12.795-27.066 5.176-11.275 10.387-22.507 16.017-33.563q3.754-7.38 7.471-14.777l1.684-3.348a608 608 0 0 0 12.226-26.06c2.83-6.328 6.083-12.227 9.778-18.092m-427 72 3 1v2l3 1v2h2v2h2l1.145 1.363c4.426 5.173 9.14 9.975 14.011 14.73 2.14 2.136 4.128 4.364 6.098 6.657 4.168 4.813 8.66 9.274 13.184 13.75l2.505 2.492Q258.97 496 262 499v2h2l1.074 1.293c4.427 5.198 9.162 10.018 14.042 14.786 2.871 2.826 5.601 5.709 8.228 8.765 3.991 4.619 8.305 8.878 12.656 13.156 5.009 4.925 9.89 9.871 14.443 15.225 1.615 1.84 3.309 3.561 5.057 5.275a117 117 0 0 1 6.875 7.375c3.293 3.825 6.83 7.348 10.422 10.89 2.671 2.71 5.152 5.551 7.629 8.438 2.087 2.383 4.3 4.592 6.574 6.797v2h2l1.355 1.574c3.427 3.953 6.89 7.784 10.645 11.426v2h2l1.215 1.434c4.683 5.448 9.654 10.54 14.785 15.566v2h2l1.32 1.54c3.745 4.328 7.583 8.463 11.68 12.46v2h2v2h2l1 3c-4.581 2.782-9.241 5.419-13.916 8.04-3.193 1.808-6.214 3.67-9.084 5.96h-3c-11.711-14.476-23.01-29.283-34.344-44.055q-7.202-9.373-14.469-18.695a2378 2378 0 0 1-15.29-19.852c-3.953-5.18-7.95-10.325-11.96-15.46a977 977 0 0 1-13.125-17.188c-7.496-10.046-15.254-19.86-23.187-29.562-5.654-6.919-11.098-13.981-16.504-21.094-7.074-9.302-14.377-18.422-21.691-27.535A849 849 0 0 1 209 448zm242 341 1 1c.497 6.49-.072 11.648-2.738 17.617-3.478 6.569-8.089 12.202-14.262 16.383-10.022 5.882-20.134 9.818-31.875 10.438-10.035-.376-20.193-3.697-28.766-8.833-6.443-4.384-9.877-9.135-13.296-16.043A375 375 0 0 1 358 801l1-3q21.404-2.835 42.81-5.655 9.023-1.188 18.044-2.395l6.57-.873q3.77-.498 7.537-1.01c5.738-.753 11.252-1.243 17.039-1.067m166-29 2 1c.56 8.418.333 15.48-3.332 23.18-4.094 6.923-9.042 12.194-16.043 16.195Q596.83 799.726 594 801l-2.406 1.25c-8.504 3.875-17.929 3.619-27.091 3.02-8.122-.877-15.187-4.18-22.003-8.582-5.536-4.191-9.423-9.105-12.375-15.375-1.055-3.108-1.224-5.096-1.125-8.313 29.302-5.192 58.64-10.148 88-15"/></svg>